<svg width="180" height="180" viewBox="0 0 180 180" fill="none" xmlns="http://www.w3.org/2000/svg">
<rect width="180" height="180" fill="#FFD500"/>
<path d="M111.867 19.25C117.588 19.2501 123.079 21.4973 127.158 25.5074C131.238 29.5175 133.579 34.9696 133.677 40.6891C140.441 41.1384 146.781 44.1417 151.413 49.0909C156.046 54.0401 158.624 60.5649 158.625 67.3438C158.627 71.1781 157.801 74.9676 156.205 78.4536C154.608 81.9397 152.278 85.0401 149.373 87.5431C154.891 90.0039 159.45 94.2068 162.35 99.5072C165.25 104.808 166.331 110.913 165.427 116.887C164.524 122.861 161.686 128.374 157.348 132.58C153.011 136.786 147.414 139.453 141.415 140.172L140.079 144.198C138.565 148.737 135.814 152.763 132.134 155.821C128.454 158.88 123.993 160.849 119.254 161.508C114.515 162.166 109.686 161.487 105.312 159.547C100.938 157.607 97.1932 154.483 94.5 150.528C91.8069 154.483 88.0621 157.607 83.6882 159.547C79.3144 161.487 74.4854 162.166 69.7461 161.508C65.0068 160.849 60.5457 158.88 56.8661 155.821C53.1865 152.763 50.4348 148.737 48.9214 144.198L47.5855 140.172C41.5861 139.454 35.9878 136.788 31.6496 132.582C27.3114 128.377 24.4728 122.864 23.5693 116.89C22.6658 110.915 23.7473 104.81 26.6479 99.5092C29.5485 94.2088 34.108 90.0064 39.6268 87.5467C36.7218 85.0433 34.3913 81.9423 32.7946 78.4556C31.1979 74.9689 30.3726 71.1787 30.375 67.3438C30.3764 60.5649 32.9543 54.0401 37.5866 49.0909C42.219 44.1417 48.5593 41.1384 55.3232 40.6891C55.4002 36.1551 56.8883 31.7577 59.5806 28.1087C62.273 24.4598 66.0356 21.7406 70.3451 20.3294C74.6547 18.9182 79.2969 18.8852 83.6261 20.235C87.9552 21.5848 91.7561 24.2502 94.5 27.8606C96.5347 25.1832 99.1612 23.0128 102.174 21.519C105.187 20.0253 108.504 19.2487 111.867 19.25ZM77.1328 28.1563C73.7078 28.1563 70.4231 29.5169 68.0012 31.9387C65.5793 34.3606 64.2188 37.6453 64.2188 41.0703V45.0781C64.2188 47.5363 62.2238 49.5313 59.7656 49.5313H57.0938C52.3696 49.5313 47.8389 51.4079 44.4984 54.7484C41.1579 58.0889 39.2813 62.6196 39.2813 67.3438C39.2813 72.0679 41.1579 76.5986 44.4984 79.9391C47.8389 83.2796 52.3696 85.1563 57.0938 85.1563H58.875C62.8906 85.1563 66.7416 86.7514 69.581 89.5909C72.4205 92.4303 74.0156 96.2813 74.0156 100.297V101.9C77.2344 102.959 79.9705 105.13 81.7331 108.024C83.4956 110.918 84.1692 114.346 83.633 117.691C83.0968 121.037 81.3858 124.082 78.8072 126.281C76.2286 128.479 72.951 129.686 69.5625 129.686C66.174 129.686 62.8964 128.479 60.3178 126.281C57.7392 124.082 56.0283 121.037 55.4921 117.691C54.9559 114.346 55.6294 110.918 57.392 108.024C59.1545 105.13 61.8906 102.959 65.1094 101.9V100.297C65.1094 98.6434 64.4526 97.0577 63.2834 95.8885C62.1142 94.7194 60.5285 94.0625 58.875 94.0625H50.8594C45.899 94.0625 41.1418 96.033 37.6343 99.5405C34.1268 103.048 32.1563 107.805 32.1563 112.766C32.1563 117.726 34.1268 122.483 37.6343 125.991C41.1418 129.498 45.899 131.469 50.8594 131.469C52.6549 131.469 54.2651 132.548 54.9563 134.176L55.081 134.515L57.3716 141.376C58.6316 145.152 61.1938 148.357 64.6 150.417C68.0062 152.477 72.0342 153.258 75.9635 152.621C79.8929 151.983 83.4673 149.969 86.0475 146.937C88.6277 143.906 90.0453 140.056 90.0469 136.075V70.0156H83.5596C82.9234 73.3403 81.1245 76.3299 78.4851 78.4491C75.8456 80.5684 72.5379 81.6788 69.1544 81.5817C65.7708 81.4845 62.5323 80.186 60.0189 77.9188C57.5054 75.6515 55.8811 72.5636 55.4368 69.2079C54.9925 65.8522 55.7572 62.448 57.5941 59.6048C59.4309 56.7615 62.2199 54.665 65.4616 53.6907C68.7033 52.7163 72.186 52.9277 75.286 54.287C78.386 55.6464 80.9009 58.0649 82.3804 61.1094H90.0469V41.0703C90.0469 37.6453 88.6863 34.3606 86.2644 31.9387C83.8426 29.5169 80.5578 28.1563 77.1328 28.1563ZM136.801 94.0625C136.203 96.3748 135.034 98.4998 133.401 100.242C131.767 101.985 129.722 103.288 127.453 104.034V104.75C127.453 108.766 125.858 112.617 123.019 115.456C120.179 118.295 116.328 119.891 112.313 119.891H98.9531V136.075C98.9547 140.056 100.372 143.906 102.953 146.937C105.533 149.969 109.107 151.983 113.036 152.621C116.966 153.258 120.994 152.477 124.4 150.417C127.806 148.357 130.368 145.152 131.628 141.376L133.919 134.515L134.044 134.18C134.385 133.376 134.956 132.69 135.685 132.208C136.413 131.726 137.267 131.469 138.141 131.469C143.101 131.469 147.858 129.498 151.366 125.991C154.873 122.483 156.844 117.726 156.844 112.766C156.844 107.805 154.873 103.048 151.366 99.5405C147.858 96.033 143.101 94.0625 138.141 94.0625H136.801ZM69.5625 110.094C68.1453 110.094 66.7861 110.657 65.7839 111.659C64.7818 112.661 64.2188 114.02 64.2188 115.438C64.2188 116.855 64.7818 118.214 65.7839 119.216C66.7861 120.218 68.1453 120.781 69.5625 120.781C70.9798 120.781 72.339 120.218 73.3411 119.216C74.3433 118.214 74.9063 116.855 74.9063 115.438C74.9063 114.02 74.3433 112.661 73.3411 111.659C72.339 110.657 70.9798 110.094 69.5625 110.094ZM111.867 28.1563C108.442 28.1563 105.157 29.5169 102.736 31.9387C100.314 34.3606 98.9531 37.6453 98.9531 41.0703V110.984H112.313C113.966 110.984 115.552 110.328 116.721 109.158C117.89 107.989 118.547 106.403 118.547 104.75V104.034C116.294 103.293 114.261 102.002 112.633 100.277C111.005 98.5524 109.833 96.4484 109.224 94.1562C108.615 91.864 108.588 89.4559 109.145 87.1505C109.702 84.845 110.825 82.715 112.413 80.9535C114.002 79.1921 116.005 77.855 118.24 77.0635C120.476 76.2719 122.874 76.0509 125.217 76.4205C127.56 76.7902 129.773 77.7387 131.657 79.1802C133.54 80.6217 135.034 82.5105 136.003 84.6753C140.25 83.668 143.979 81.1365 146.483 77.5614C148.986 73.9863 150.09 69.6165 149.585 65.2813C149.079 60.9461 147 56.9473 143.741 54.0439C140.482 51.1406 136.271 49.5348 131.906 49.5313H129.234C126.776 49.5313 124.781 47.5363 124.781 45.0781V41.0703C124.781 37.6453 123.421 34.3606 120.999 31.9387C118.577 29.5169 115.292 28.1563 111.867 28.1563ZM123 85.1563C121.583 85.1563 120.224 85.7193 119.221 86.7214C118.219 87.7236 117.656 89.0828 117.656 90.5C117.656 91.9173 118.219 93.2765 119.221 94.2786C120.224 95.2808 121.583 95.8438 123 95.8438C124.417 95.8438 125.776 95.2808 126.779 94.2786C127.781 93.2765 128.344 91.9173 128.344 90.5C128.344 89.0828 127.781 87.7236 126.779 86.7214C125.776 85.7193 124.417 85.1563 123 85.1563ZM69.5625 62C68.1453 62 66.7861 62.563 65.7839 63.5652C64.7818 64.5673 64.2188 65.9265 64.2188 67.3438C64.2188 68.761 64.7818 70.1202 65.7839 71.1224C66.7861 72.1245 68.1453 72.6875 69.5625 72.6875C70.9798 72.6875 72.339 72.1245 73.3411 71.1224C74.3433 70.1202 74.9063 68.761 74.9063 67.3438C74.9063 65.9265 74.3433 64.5673 73.3411 63.5652C72.339 62.563 70.9798 62 69.5625 62Z" fill="white"/>
</svg>
